<svg xmlns="http://www.w3.org/2000/svg" viewBox="0 0 180 180" role="img" aria-label="KisanMitra app icon">
  <defs>
    <linearGradient id="kmAppleGrad" x1="0" y1="0" x2="1" y2="1">
      <stop offset="0" stop-color="#FF9933"/>
      <stop offset="1" stop-color="#E87A1E"/>
    </linearGradient>
  </defs>
  <rect width="180" height="180" rx="30" fill="url(#kmAppleGrad)"/>
  <path d="M90 40v100" stroke="#fff" stroke-width="9" stroke-linecap="round"/>
  <path d="M90 64c-14 0-25-11-25-25 14 0 25 11 25 25Zm0 0c14 0 25-11 25-25-14 0-25 11-25 25Z" fill="none" stroke="#fff" stroke-width="7"/>
  <path d="M90 86c-16 0-30-13-30-30 16 0 30 13 30 30Zm0 0c16 0 30-13 30-30-16 0-30 13-30 30Z" fill="none" stroke="#fff" stroke-width="7"/>
  <path d="M90 111c-19 0-34-15-34-34 19 0 34 15 34 34Zm0 0c19 0 34-15 34-34-19 0-34 15-34 34Z" fill="none" stroke="#fff" stroke-width="7"/>
</svg>
