<svg xmlns="http://www.w3.org/2000/svg" viewBox="0 0 32 32" role="img" aria-label="KisanMitra favicon">
  <rect width="32" height="32" rx="6" fill="#FF9933"/>
  <path d="M16 6v20" stroke="#fff" stroke-width="1.8" stroke-linecap="round"/>
  <path d="M16 11c-3 0-5.5-2.4-5.5-5.5 3 0 5.5 2.4 5.5 5.5Zm0 0c3 0 5.5-2.4 5.5-5.5-3 0-5.5 2.4-5.5 5.5Z" fill="none" stroke="#fff" stroke-width="1.4"/>
  <path d="M16 15c-3.4 0-6.2-2.8-6.2-6.2 3.4 0 6.2 2.8 6.2 6.2Zm0 0c3.4 0 6.2-2.8 6.2-6.2-3.4 0-6.2 2.8-6.2 6.2Z" fill="none" stroke="#fff" stroke-width="1.2"/>
</svg>
