<svg xmlns="http://www.w3.org/2000/svg" viewBox="0 0 192 192" role="img" aria-label="KisanMitra icon 192">
  <defs>
    <linearGradient id="km192Grad" x1="0" y1="0" x2="1" y2="1">
      <stop offset="0" stop-color="#FF9933"/>
      <stop offset="1" stop-color="#E87A1E"/>
    </linearGradient>
  </defs>
  <rect width="192" height="192" rx="32" fill="url(#km192Grad)"/>
  <path d="M96 42v108" stroke="#fff" stroke-width="10" stroke-linecap="round"/>
  <path d="M96 69c-16 0-29-13-29-29 16 0 29 13 29 29Zm0 0c16 0 29-13 29-29-16 0-29 13-29 29Z" fill="none" stroke="#fff" stroke-width="8"/>
  <path d="M96 93c-19 0-34-15-34-34 19 0 34 15 34 34Zm0 0c19 0 34-15 34-34-19 0-34 15-34 34Z" fill="none" stroke="#fff" stroke-width="8"/>
  <path d="M96 119c-22 0-39-17-39-39 22 0 39 17 39 39Zm0 0c22 0 39-17 39-39-22 0-39 17-39 39Z" fill="none" stroke="#fff" stroke-width="8"/>
</svg>
