<svg xmlns="http://www.w3.org/2000/svg" viewBox="0 0 512 512" role="img" aria-label="KisanMitra icon 512">
  <defs>
    <linearGradient id="km512Grad" x1="0" y1="0" x2="1" y2="1">
      <stop offset="0" stop-color="#FF9933"/>
      <stop offset="1" stop-color="#E87A1E"/>
    </linearGradient>
  </defs>
  <rect width="512" height="512" rx="84" fill="url(#km512Grad)"/>
  <path d="M256 110v292" stroke="#fff" stroke-width="24" stroke-linecap="round"/>
  <path d="M256 182c-42 0-76-34-76-76 42 0 76 34 76 76Zm0 0c42 0 76-34 76-76-42 0-76 34-76 76Z" fill="none" stroke="#fff" stroke-width="18"/>
  <path d="M256 246c-52 0-94-42-94-94 52 0 94 42 94 94Zm0 0c52 0 94-42 94-94-52 0-94 42-94 94Z" fill="none" stroke="#fff" stroke-width="18"/>
  <path d="M256 316c-63 0-114-51-114-114 63 0 114 51 114 114Zm0 0c63 0 114-51 114-114-63 0-114 51-114 114Z" fill="none" stroke="#fff" stroke-width="18"/>
</svg>
