<svg xmlns="http://www.w3.org/2000/svg" style="display:none" aria-hidden="true">
  <!-- KisanMitra icon set — Lucide (ISC/MIT). 24px, stroke, currentColor.
       Generated; styled by .km-icon (fill:none; stroke:currentColor). -->
  <symbol id="km-arrow-right" viewBox="0 0 24 24"><!-- @license lucide-static v1.17.0 - ISC --><path d="M5 12h14" /><path d="m12 5 7 7-7 7" /></symbol>
  <symbol id="km-arrow-up" viewBox="0 0 24 24"><!-- @license lucide-static v1.17.0 - ISC --><path d="m5 12 7-7 7 7" /><path d="M12 19V5" /></symbol>
  <symbol id="km-refresh" viewBox="0 0 24 24"><!-- @license lucide-static v1.17.0 - ISC --><path d="M3 12a9 9 0 0 1 9-9 9.75 9.75 0 0 1 6.74 2.74L21 8" /><path d="M21 3v5h-5" /><path d="M21 12a9 9 0 0 1-9 9 9.75 9.75 0 0 1-6.74-2.74L3 16" /><path d="M8 16H3v5" /></symbol>
  <symbol id="km-menu" viewBox="0 0 24 24"><!-- @license lucide-static v1.17.0 - ISC --><path d="M4 5h16" /><path d="M4 12h16" /><path d="M4 19h16" /></symbol>
  <symbol id="km-close" viewBox="0 0 24 24"><!-- @license lucide-static v1.17.0 - ISC --><path d="M18 6 6 18" /><path d="m6 6 12 12" /></symbol>
  <symbol id="km-search" viewBox="0 0 24 24"><!-- @license lucide-static v1.17.0 - ISC --><path d="m21 21-4.34-4.34" /><circle cx="11" cy="11" r="8" /></symbol>
  <symbol id="km-download" viewBox="0 0 24 24"><!-- @license lucide-static v1.17.0 - ISC --><path d="M12 15V3" /><path d="M21 15v4a2 2 0 0 1-2 2H5a2 2 0 0 1-2-2v-4" /><path d="m7 10 5 5 5-5" /></symbol>
  <symbol id="km-share" viewBox="0 0 24 24"><!-- @license lucide-static v1.17.0 - ISC --><circle cx="18" cy="5" r="3" /><circle cx="6" cy="12" r="3" /><circle cx="18" cy="19" r="3" /><line x1="8.59" x2="15.42" y1="13.51" y2="17.49" /><line x1="15.41" x2="8.59" y1="6.51" y2="10.49" /></symbol>
  <symbol id="km-folder" viewBox="0 0 24 24"><!-- @license lucide-static v1.17.0 - ISC --><path d="M20 20a2 2 0 0 0 2-2V8a2 2 0 0 0-2-2h-7.9a2 2 0 0 1-1.69-.9L9.6 3.9A2 2 0 0 0 7.93 3H4a2 2 0 0 0-2 2v13a2 2 0 0 0 2 2Z" /></symbol>
  <symbol id="km-link" viewBox="0 0 24 24"><!-- @license lucide-static v1.17.0 - ISC --><path d="M10 13a5 5 0 0 0 7.54.54l3-3a5 5 0 0 0-7.07-7.07l-1.72 1.71" /><path d="M14 11a5 5 0 0 0-7.54-.54l-3 3a5 5 0 0 0 7.07 7.07l1.71-1.71" /></symbol>
  <symbol id="km-mic" viewBox="0 0 24 24"><!-- @license lucide-static v1.17.0 - ISC --><path d="M12 19v3" /><path d="M19 10v2a7 7 0 0 1-14 0v-2" /><rect x="9" y="2" width="6" height="13" rx="3" /></symbol>
  <symbol id="km-star" viewBox="0 0 24 24"><!-- @license lucide-static v1.17.0 - ISC --><path d="M11.525 2.295a.53.53 0 0 1 .95 0l2.31 4.679a2.123 2.123 0 0 0 1.595 1.16l5.166.756a.53.53 0 0 1 .294.904l-3.736 3.638a2.123 2.123 0 0 0-.611 1.878l.882 5.14a.53.53 0 0 1-.771.56l-4.618-2.428a2.122 2.122 0 0 0-1.973 0L6.396 21.01a.53.53 0 0 1-.77-.56l.881-5.139a2.122 2.122 0 0 0-.611-1.879L2.16 9.795a.53.53 0 0 1 .294-.906l5.165-.755a2.122 2.122 0 0 0 1.597-1.16z" /></symbol>
  <symbol id="km-chat" viewBox="0 0 24 24"><!-- @license lucide-static v1.17.0 - ISC --><path d="M2.992 16.342a2 2 0 0 1 .094 1.167l-1.065 3.29a1 1 0 0 0 1.236 1.168l3.413-.998a2 2 0 0 1 1.099.092 10 10 0 1 0-4.777-4.719" /></symbol>
  <symbol id="km-book" viewBox="0 0 24 24"><!-- @license lucide-static v1.17.0 - ISC --><path d="M12 7v14" /><path d="M3 18a1 1 0 0 1-1-1V4a1 1 0 0 1 1-1h5a4 4 0 0 1 4 4 4 4 0 0 1 4-4h5a1 1 0 0 1 1 1v13a1 1 0 0 1-1 1h-6a3 3 0 0 0-3 3 3 3 0 0 0-3-3z" /></symbol>
  <symbol id="km-archive" viewBox="0 0 24 24"><!-- @license lucide-static v1.17.0 - ISC --><rect width="20" height="5" x="2" y="3" rx="1" /><path d="M4 8v11a2 2 0 0 0 2 2h12a2 2 0 0 0 2-2V8" /><path d="M10 12h4" /></symbol>
  <symbol id="km-check" viewBox="0 0 24 24"><!-- @license lucide-static v1.17.0 - ISC --><path d="M20 6 9 17l-5-5" /></symbol>
  <symbol id="km-check-circle" viewBox="0 0 24 24"><!-- @license lucide-static v1.17.0 - ISC --><circle cx="12" cy="12" r="10" /><path d="m9 12 2 2 4-4" /></symbol>
  <symbol id="km-x-circle" viewBox="0 0 24 24"><!-- @license lucide-static v1.17.0 - ISC --><circle cx="12" cy="12" r="10" /><path d="m15 9-6 6" /><path d="m9 9 6 6" /></symbol>
  <symbol id="km-alert" viewBox="0 0 24 24"><!-- @license lucide-static v1.17.0 - ISC --><path d="m21.73 18-8-14a2 2 0 0 0-3.48 0l-8 14A2 2 0 0 0 4 21h16a2 2 0 0 0 1.73-3" /><path d="M12 9v4" /><path d="M12 17h.01" /></symbol>
  <symbol id="km-info" viewBox="0 0 24 24"><!-- @license lucide-static v1.17.0 - ISC --><circle cx="12" cy="12" r="10" /><path d="M12 16v-4" /><path d="M12 8h.01" /></symbol>
  <symbol id="km-calendar" viewBox="0 0 24 24"><!-- @license lucide-static v1.17.0 - ISC --><path d="M8 2v4" /><path d="M16 2v4" /><rect width="18" height="18" x="3" y="4" rx="2" /><path d="M3 10h18" /></symbol>
  <symbol id="km-clock" viewBox="0 0 24 24"><!-- @license lucide-static v1.17.0 - ISC --><circle cx="12" cy="12" r="10" /><path d="M12 6v6l4 2" /></symbol>
  <symbol id="km-globe" viewBox="0 0 24 24"><!-- @license lucide-static v1.17.0 - ISC --><circle cx="12" cy="12" r="10" /><path d="M12 2a14.5 14.5 0 0 0 0 20 14.5 14.5 0 0 0 0-20" /><path d="M2 12h20" /></symbol>
  <symbol id="km-key" viewBox="0 0 24 24"><!-- @license lucide-static v1.17.0 - ISC --><path d="M2.586 17.414A2 2 0 0 0 2 18.828V21a1 1 0 0 0 1 1h3a1 1 0 0 0 1-1v-1a1 1 0 0 1 1-1h1a1 1 0 0 0 1-1v-1a1 1 0 0 1 1-1h.172a2 2 0 0 0 1.414-.586l.814-.814a6.5 6.5 0 1 0-4-4z" /><circle cx="16.5" cy="7.5" r=".5" fill="currentColor" /></symbol>
  <symbol id="km-inbox" viewBox="0 0 24 24"><!-- @license lucide-static v1.17.0 - ISC --><polyline points="22 12 16 12 14 15 10 15 8 12 2 12" /><path d="M5.45 5.11 2 12v6a2 2 0 0 0 2 2h16a2 2 0 0 0 2-2v-6l-3.45-6.89A2 2 0 0 0 16.76 4H7.24a2 2 0 0 0-1.79 1.11z" /></symbol>
  <symbol id="km-bulb" viewBox="0 0 24 24"><!-- @license lucide-static v1.17.0 - ISC --><path d="M15 14c.2-1 .7-1.7 1.5-2.5 1-.9 1.5-2.2 1.5-3.5A6 6 0 0 0 6 8c0 1 .2 2.2 1.5 3.5.7.7 1.3 1.5 1.5 2.5" /><path d="M9 18h6" /><path d="M10 22h4" /></symbol>
  <symbol id="km-bolt" viewBox="0 0 24 24"><!-- @license lucide-static v1.17.0 - ISC --><path d="M4 14a1 1 0 0 1-.78-1.63l9.9-10.2a.5.5 0 0 1 .86.46l-1.92 6.02A1 1 0 0 0 13 10h7a1 1 0 0 1 .78 1.63l-9.9 10.2a.5.5 0 0 1-.86-.46l1.92-6.02A1 1 0 0 0 11 14z" /></symbol>
  <symbol id="km-eye" viewBox="0 0 24 24"><!-- @license lucide-static v1.17.0 - ISC --><path d="M2.062 12.348a1 1 0 0 1 0-.696 10.75 10.75 0 0 1 19.876 0 1 1 0 0 1 0 .696 10.75 10.75 0 0 1-19.876 0" /><circle cx="12" cy="12" r="3" /></symbol>
  <symbol id="km-heart" viewBox="0 0 24 24"><!-- @license lucide-static v1.17.0 - ISC --><path d="M2 9.5a5.5 5.5 0 0 1 9.591-3.676.56.56 0 0 0 .818 0A5.49 5.49 0 0 1 22 9.5c0 2.29-1.5 4-3 5.5l-5.492 5.313a2 2 0 0 1-3 .019L5 15c-1.5-1.5-3-3.2-3-5.5" /></symbol>
  <symbol id="km-phone" viewBox="0 0 24 24"><!-- @license lucide-static v1.17.0 - ISC --><path d="M13.832 16.568a1 1 0 0 0 1.213-.303l.355-.465A2 2 0 0 1 17 15h3a2 2 0 0 1 2 2v3a2 2 0 0 1-2 2A18 18 0 0 1 2 4a2 2 0 0 1 2-2h3a2 2 0 0 1 2 2v3a2 2 0 0 1-.8 1.6l-.468.351a1 1 0 0 0-.292 1.233 14 14 0 0 0 6.392 6.384" /></symbol>
  <symbol id="km-mail" viewBox="0 0 24 24"><!-- @license lucide-static v1.17.0 - ISC --><path d="m22 7-8.991 5.727a2 2 0 0 1-2.009 0L2 7" /><rect x="2" y="4" width="20" height="16" rx="2" /></symbol>
  <symbol id="km-device" viewBox="0 0 24 24"><!-- @license lucide-static v1.17.0 - ISC --><rect width="14" height="20" x="5" y="2" rx="2" ry="2" /><path d="M12 18h.01" /></symbol>
  <symbol id="km-help" viewBox="0 0 24 24"><!-- @license lucide-static v1.17.0 - ISC --><circle cx="12" cy="12" r="10" /><path d="M9.09 9a3 3 0 0 1 5.83 1c0 2-3 3-3 3" /><path d="M12 17h.01" /></symbol>
  <symbol id="km-edit" viewBox="0 0 24 24"><!-- @license lucide-static v1.17.0 - ISC --><path d="M12 3H5a2 2 0 0 0-2 2v14a2 2 0 0 0 2 2h14a2 2 0 0 0 2-2v-7" /><path d="M18.375 2.625a1 1 0 0 1 3 3l-9.013 9.014a2 2 0 0 1-.853.505l-2.873.84a.5.5 0 0 1-.62-.62l.84-2.873a2 2 0 0 1 .506-.852z" /></symbol>
  <symbol id="km-clipboard" viewBox="0 0 24 24"><!-- @license lucide-static v1.17.0 - ISC --><rect width="8" height="4" x="8" y="2" rx="1" ry="1" /><path d="M16 4h2a2 2 0 0 1 2 2v14a2 2 0 0 1-2 2H6a2 2 0 0 1-2-2V6a2 2 0 0 1 2-2h2" /><path d="M12 11h4" /><path d="M12 16h4" /><path d="M8 11h.01" /><path d="M8 16h.01" /></symbol>
  <symbol id="km-wifi-off" viewBox="0 0 24 24"><!-- @license lucide-static v1.17.0 - ISC --><path d="M12 20h.01" /><path d="M8.5 16.429a5 5 0 0 1 7 0" /><path d="M5 12.859a10 10 0 0 1 5.17-2.69" /><path d="M19 12.859a10 10 0 0 0-2.007-1.523" /><path d="M2 8.82a15 15 0 0 1 4.177-2.643" /><path d="M22 8.82a15 15 0 0 0-11.288-3.764" /><path d="m2 2 20 20" /></symbol>
  <symbol id="km-location" viewBox="0 0 24 24"><!-- @license lucide-static v1.17.0 - ISC --><path d="M20 10c0 4.993-5.539 10.193-7.399 11.799a1 1 0 0 1-1.202 0C9.539 20.193 4 14.993 4 10a8 8 0 0 1 16 0" /><circle cx="12" cy="10" r="3" /></symbol>
  <symbol id="km-flask" viewBox="0 0 24 24"><!-- @license lucide-static v1.17.0 - ISC --><path d="M14 2v6a2 2 0 0 0 .245.96l5.51 10.08A2 2 0 0 1 18 22H6a2 2 0 0 1-1.755-2.96l5.51-10.08A2 2 0 0 0 10 8V2" /><path d="M6.453 15h11.094" /><path d="M8.5 2h7" /></symbol>
  <symbol id="km-rupee" viewBox="0 0 24 24"><!-- @license lucide-static v1.17.0 - ISC --><path d="M6 3h12" /><path d="M6 8h12" /><path d="m6 13 8.5 8" /><path d="M6 13h3" /><path d="M9 13c6.667 0 6.667-10 0-10" /></symbol>
  <symbol id="km-chart" viewBox="0 0 24 24"><!-- @license lucide-static v1.17.0 - ISC --><path d="M3 3v16a2 2 0 0 0 2 2h16" /><path d="M18 17V9" /><path d="M13 17V5" /><path d="M8 17v-3" /></symbol>
  <symbol id="km-trend" viewBox="0 0 24 24"><!-- @license lucide-static v1.17.0 - ISC --><path d="M16 7h6v6" /><path d="m22 7-8.5 8.5-5-5L2 17" /></symbol>
  <symbol id="km-store" viewBox="0 0 24 24"><!-- @license lucide-static v1.17.0 - ISC --><path d="M15 21v-5a1 1 0 0 0-1-1h-4a1 1 0 0 0-1 1v5" /><path d="M17.774 10.31a1.12 1.12 0 0 0-1.549 0 2.5 2.5 0 0 1-3.451 0 1.12 1.12 0 0 0-1.548 0 2.5 2.5 0 0 1-3.452 0 1.12 1.12 0 0 0-1.549 0 2.5 2.5 0 0 1-3.77-3.248l2.889-4.184A2 2 0 0 1 7 2h10a2 2 0 0 1 1.653.873l2.895 4.192a2.5 2.5 0 0 1-3.774 3.244" /><path d="M4 10.95V19a2 2 0 0 0 2 2h12a2 2 0 0 0 2-2v-8.05" /></symbol>
  <symbol id="km-building" viewBox="0 0 24 24"><!-- @license lucide-static v1.17.0 - ISC --><path d="M10 12h4" /><path d="M10 8h4" /><path d="M14 21v-3a2 2 0 0 0-4 0v3" /><path d="M6 10H4a2 2 0 0 0-2 2v7a2 2 0 0 0 2 2h16a2 2 0 0 0 2-2V9a2 2 0 0 0-2-2h-2" /><path d="M6 21V5a2 2 0 0 1 2-2h8a2 2 0 0 1 2 2v16" /></symbol>
  <symbol id="km-temple" viewBox="0 0 24 24"><!-- @license lucide-static v1.17.0 - ISC --><path d="M10 18v-7" /><path d="M11.119 2.205a2 2 0 0 1 1.762 0l7.84 3.846A.5.5 0 0 1 20.5 7h-17a.5.5 0 0 1-.22-.949z" /><path d="M14 18v-7" /><path d="M18 18v-7" /><path d="M3 22h18" /><path d="M6 18v-7" /></symbol>
  <symbol id="km-bank" viewBox="0 0 24 24"><!-- @license lucide-static v1.17.0 - ISC --><rect width="20" height="12" x="2" y="6" rx="2" /><circle cx="12" cy="12" r="2" /><path d="M6 12h.01M18 12h.01" /></symbol>
  <symbol id="km-factory" viewBox="0 0 24 24"><!-- @license lucide-static v1.17.0 - ISC --><path d="M12 16h.01" /><path d="M16 16h.01" /><path d="M3 19a2 2 0 0 0 2 2h14a2 2 0 0 0 2-2V8.5a.5.5 0 0 0-.769-.422l-4.462 2.844A.5.5 0 0 1 15 10.5v-2a.5.5 0 0 0-.769-.422L9.77 10.922A.5.5 0 0 1 9 10.5V5a2 2 0 0 0-2-2H5a2 2 0 0 0-2 2z" /><path d="M8 16h.01" /></symbol>
  <symbol id="km-handshake" viewBox="0 0 24 24"><!-- @license lucide-static v1.17.0 - ISC --><path d="m11 17 2 2a1 1 0 1 0 3-3" /><path d="m14 14 2.5 2.5a1 1 0 1 0 3-3l-3.88-3.88a3 3 0 0 0-4.24 0l-.88.88a1 1 0 1 1-3-3l2.81-2.81a5.79 5.79 0 0 1 7.06-.87l.47.28a2 2 0 0 0 1.42.25L21 4" /><path d="m21 3 1 11h-2" /><path d="M3 3 2 14l6.5 6.5a1 1 0 1 0 3-3" /><path d="M3 4h8" /></symbol>
  <symbol id="km-farmer" viewBox="0 0 24 24"><!-- @license lucide-static v1.17.0 - ISC --><circle cx="12" cy="8" r="5" /><path d="M20 21a8 8 0 0 0-16 0" /></symbol>
  <symbol id="km-box" viewBox="0 0 24 24"><!-- @license lucide-static v1.17.0 - ISC --><path d="M11 21.73a2 2 0 0 0 2 0l7-4A2 2 0 0 0 21 16V8a2 2 0 0 0-1-1.73l-7-4a2 2 0 0 0-2 0l-7 4A2 2 0 0 0 3 8v8a2 2 0 0 0 1 1.73z" /><path d="M12 22V12" /><polyline points="3.29 7 12 12 20.71 7" /><path d="m7.5 4.27 9 5.15" /></symbol>
  <symbol id="km-cart" viewBox="0 0 24 24"><!-- @license lucide-static v1.17.0 - ISC --><circle cx="8" cy="21" r="1" /><circle cx="19" cy="21" r="1" /><path d="M2.05 2.05h2l2.66 12.42a2 2 0 0 0 2 1.58h9.78a2 2 0 0 0 1.95-1.57l1.65-7.43H5.12" /></symbol>
  <symbol id="km-shield" viewBox="0 0 24 24"><!-- @license lucide-static v1.17.0 - ISC --><path d="M20 13c0 5-3.5 7.5-7.66 8.95a1 1 0 0 1-.67-.01C7.5 20.5 4 18 4 13V6a1 1 0 0 1 1-1c2 0 4.5-1.2 6.24-2.72a1.17 1.17 0 0 1 1.52 0C14.51 3.81 17 5 19 5a1 1 0 0 1 1 1z" /><path d="m9 12 2 2 4-4" /></symbol>
  <symbol id="km-truck" viewBox="0 0 24 24"><!-- @license lucide-static v1.17.0 - ISC --><path d="M14 18V6a2 2 0 0 0-2-2H4a2 2 0 0 0-2 2v11a1 1 0 0 0 1 1h2" /><path d="M15 18H9" /><path d="M19 18h2a1 1 0 0 0 1-1v-3.65a1 1 0 0 0-.22-.624l-3.48-4.35A1 1 0 0 0 17.52 8H14" /><circle cx="17" cy="18" r="2" /><circle cx="7" cy="18" r="2" /></symbol>
  <symbol id="km-bottle" viewBox="0 0 24 24"><!-- @license lucide-static v1.17.0 - ISC --><path d="M10 2v6.292a7 7 0 1 0 4 0V2" /><path d="M5 15h14" /><path d="M8.5 2h7" /></symbol>
  <symbol id="km-flag-in" viewBox="0 0 24 24"><!-- @license lucide-static v1.17.0 - ISC --><path d="M4 22V4a1 1 0 0 1 .4-.8A6 6 0 0 1 8 2c3 0 5 2 7.333 2q2 0 3.067-.8A1 1 0 0 1 20 4v10a1 1 0 0 1-.4.8A6 6 0 0 1 16 16c-3 0-5-2-8-2a6 6 0 0 0-4 1.528" /></symbol>
  <symbol id="km-wheat" viewBox="0 0 24 24"><!-- @license lucide-static v1.17.0 - ISC --><path d="M2 22 16 8" /><path d="M3.47 12.53 5 11l1.53 1.53a3.5 3.5 0 0 1 0 4.94L5 19l-1.53-1.53a3.5 3.5 0 0 1 0-4.94Z" /><path d="M7.47 8.53 9 7l1.53 1.53a3.5 3.5 0 0 1 0 4.94L9 15l-1.53-1.53a3.5 3.5 0 0 1 0-4.94Z" /><path d="M11.47 4.53 13 3l1.53 1.53a3.5 3.5 0 0 1 0 4.94L13 11l-1.53-1.53a3.5 3.5 0 0 1 0-4.94Z" /><path d="M20 2h2v2a4 4 0 0 1-4 4h-2V6a4 4 0 0 1 4-4Z" /><path d="M11.47 17.47 13 19l-1.53 1.53a3.5 3.5 0 0 1-4.94 0L5 19l1.53-1.53a3.5 3.5 0 0 1 4.94 0Z" /><path d="M15.47 13.47 17 15l-1.53 1.53a3.5 3.5 0 0 1-4.94 0L9 15l1.53-1.53a3.5 3.5 0 0 1 4.94 0Z" /><path d="M19.47 9.47 21 11l-1.53 1.53a3.5 3.5 0 0 1-4.94 0L13 11l1.53-1.53a3.5 3.5 0 0 1 4.94 0Z" /></symbol>
  <symbol id="km-legume" viewBox="0 0 24 24"><!-- @license lucide-static v1.17.0 - ISC --><path d="M10.165 6.598C9.954 7.478 9.64 8.36 9 9c-.64.64-1.521.954-2.402 1.165A6 6 0 0 0 8 22c7.732 0 14-6.268 14-14a6 6 0 0 0-11.835-1.402Z" /><path d="M5.341 10.62a4 4 0 1 0 5.279-5.28" /></symbol>
  <symbol id="km-seed" viewBox="0 0 24 24"><!-- @license lucide-static v1.17.0 - ISC --><circle cx="12" cy="12" r="3" /><path d="M12 16.5A4.5 4.5 0 1 1 7.5 12 4.5 4.5 0 1 1 12 7.5a4.5 4.5 0 1 1 4.5 4.5 4.5 4.5 0 1 1-4.5 4.5" /><path d="M12 7.5V9" /><path d="M7.5 12H9" /><path d="M16.5 12H15" /><path d="M12 16.5V15" /><path d="m8 8 1.88 1.88" /><path d="M14.12 9.88 16 8" /><path d="m8 16 1.88-1.88" /><path d="M14.12 14.12 16 16" /></symbol>
  <symbol id="km-leaf" viewBox="0 0 24 24"><!-- @license lucide-static v1.17.0 - ISC --><path d="M11 20A7 7 0 0 1 9.8 6.1C15.5 5 17 4.48 19 2c1 2 2 4.18 2 8 0 5.5-4.78 10-10 10Z" /><path d="M2 21c0-3 1.85-5.36 5.08-6C9.5 14.52 12 13 13 12" /></symbol>
  <symbol id="km-fruit" viewBox="0 0 24 24"><!-- @license lucide-static v1.17.0 - ISC --><path d="M12 6.528V3a1 1 0 0 1 1-1h0" /><path d="M18.237 21A15 15 0 0 0 22 11a6 6 0 0 0-10-4.472A6 6 0 0 0 2 11a15.1 15.1 0 0 0 3.763 10 3 3 0 0 0 3.648.648 5.5 5.5 0 0 1 5.178 0A3 3 0 0 0 18.237 21" /></symbol>
  <symbol id="km-spice" viewBox="0 0 24 24"><!-- @license lucide-static v1.17.0 - ISC --><path d="M21.66 17.67a1.08 1.08 0 0 1-.04 1.6A12 12 0 0 1 4.73 2.38a1.1 1.1 0 0 1 1.61-.04z" /><path d="M19.65 15.66A8 8 0 0 1 8.35 4.34" /><path d="m14 10-5.5 5.5" /><path d="M14 17.85V10H6.15" /></symbol>
  <symbol id="km-cotton" viewBox="0 0 24 24"><!-- @license lucide-static v1.17.0 - ISC --><path d="M12 5a3 3 0 1 1 3 3m-3-3a3 3 0 1 0-3 3m3-3v1M9 8a3 3 0 1 0 3 3M9 8h1m5 0a3 3 0 1 1-3 3m3-3h-1m-2 3v-1" /><circle cx="12" cy="8" r="2" /><path d="M12 10v12" /><path d="M12 22c4.2 0 7-1.667 7-5-4.2 0-7 1.667-7 5Z" /><path d="M12 22c-4.2 0-7-1.667-7-5 4.2 0 7 1.667 7 5Z" /></symbol>
  <symbol id="km-sprout" viewBox="0 0 24 24"><!-- @license lucide-static v1.17.0 - ISC --><path d="M14 9.536V7a4 4 0 0 1 4-4h1.5a.5.5 0 0 1 .5.5V5a4 4 0 0 1-4 4 4 4 0 0 0-4 4c0 2 1 3 1 5a5 5 0 0 1-1 3" /><path d="M4 9a5 5 0 0 1 8 4 5 5 0 0 1-8-4" /><path d="M5 21h14" /></symbol>
  <symbol id="km-sun" viewBox="0 0 24 24"><!-- @license lucide-static v1.17.0 - ISC --><circle cx="12" cy="12" r="4" /><path d="M12 2v2" /><path d="M12 20v2" /><path d="m4.93 4.93 1.41 1.41" /><path d="m17.66 17.66 1.41 1.41" /><path d="M2 12h2" /><path d="M20 12h2" /><path d="m6.34 17.66-1.41 1.41" /><path d="m19.07 4.93-1.41 1.41" /></symbol>
  <symbol id="km-cloud" viewBox="0 0 24 24"><!-- @license lucide-static v1.17.0 - ISC --><path d="M17.5 19H9a7 7 0 1 1 6.71-9h1.79a4.5 4.5 0 1 1 0 9Z" /></symbol>
  <symbol id="km-cloud-sun" viewBox="0 0 24 24"><!-- @license lucide-static v1.17.0 - ISC --><path d="M12 2v2" /><path d="m4.93 4.93 1.41 1.41" /><path d="M20 12h2" /><path d="m19.07 4.93-1.41 1.41" /><path d="M15.947 12.65a4 4 0 0 0-5.925-4.128" /><path d="M13 22H7a5 5 0 1 1 4.9-6H13a3 3 0 0 1 0 6Z" /></symbol>
  <symbol id="km-rain" viewBox="0 0 24 24"><!-- @license lucide-static v1.17.0 - ISC --><path d="M4 14.899A7 7 0 1 1 15.71 8h1.79a4.5 4.5 0 0 1 2.5 8.242" /><path d="M16 14v6" /><path d="M8 14v6" /><path d="M12 16v6" /></symbol>
  <symbol id="km-snow" viewBox="0 0 24 24"><!-- @license lucide-static v1.17.0 - ISC --><path d="m10 20-1.25-2.5L6 18" /><path d="M10 4 8.75 6.5 6 6" /><path d="m14 20 1.25-2.5L18 18" /><path d="m14 4 1.25 2.5L18 6" /><path d="m17 21-3-6h-4" /><path d="m17 3-3 6 1.5 3" /><path d="M2 12h6.5L10 9" /><path d="m20 10-1.5 2 1.5 2" /><path d="M22 12h-6.5L14 15" /><path d="m4 10 1.5 2L4 14" /><path d="m7 21 3-6-1.5-3" /><path d="m7 3 3 6h4" /></symbol>
  <symbol id="km-fog" viewBox="0 0 24 24"><!-- @license lucide-static v1.17.0 - ISC --><path d="M4 14.899A7 7 0 1 1 15.71 8h1.79a4.5 4.5 0 0 1 2.5 8.242" /><path d="M16 17H7" /><path d="M17 21H9" /></symbol>
  <symbol id="km-droplet" viewBox="0 0 24 24"><!-- @license lucide-static v1.17.0 - ISC --><path d="M12 22a7 7 0 0 0 7-7c0-2-1-3.9-3-5.5s-3.5-4-4-6.5c-.5 2.5-2 4.9-4 6.5C6 11.1 5 13 5 15a7 7 0 0 0 7 7z" /></symbol>
  <symbol id="km-wind" viewBox="0 0 24 24"><!-- @license lucide-static v1.17.0 - ISC --><path d="M12.8 19.6A2 2 0 1 0 14 16H2" /><path d="M17.5 8a2.5 2.5 0 1 1 2 4H2" /><path d="M9.8 4.4A2 2 0 1 1 11 8H2" /></symbol>
  <symbol id="km-fire" viewBox="0 0 24 24"><!-- @license lucide-static v1.17.0 - ISC --><path d="M12 3q1 4 4 6.5t3 5.5a1 1 0 0 1-14 0 5 5 0 0 1 1-3 1 1 0 0 0 5 0c0-2-1.5-3-1.5-5q0-2 2.5-4" /></symbol>
  <symbol id="km-dot" viewBox="0 0 24 24"><circle cx="12" cy="12" r="5" fill="currentColor" stroke="none"/></symbol>
</svg>
