<svg xmlns="http://www.w3.org/2000/svg" style="display:none" aria-hidden="true">
  <!-- KisanMitra icon set — consistent 24px line style.
       Stroke/fill come from .km-icon (fill:none; stroke:currentColor).
       Paths that should be filled set fill="currentColor" explicitly. -->

  <!-- ── Navigation / UI ── -->
  <symbol id="km-arrow-right" viewBox="0 0 24 24"><path d="M5 12h14"/><path d="m13 6 6 6-6 6"/></symbol>
  <symbol id="km-arrow-up" viewBox="0 0 24 24"><path d="M12 19V5"/><path d="m6 11 6-6 6 6"/></symbol>
  <symbol id="km-refresh" viewBox="0 0 24 24"><path d="M20.5 12a8.5 8.5 0 1 1-2.4-5.9"/><path d="M20.5 4v4.5H16"/></symbol>
  <symbol id="km-menu" viewBox="0 0 24 24"><path d="M4 7h16M4 12h16M4 17h16"/></symbol>
  <symbol id="km-close" viewBox="0 0 24 24"><path d="M6 6l12 12M18 6 6 18"/></symbol>
  <symbol id="km-search" viewBox="0 0 24 24"><circle cx="11" cy="11" r="7"/><path d="m20 20-3.6-3.6"/></symbol>
  <symbol id="km-location" viewBox="0 0 24 24"><path d="M12 21s6-5.7 6-10.5a6 6 0 1 0-12 0C6 15.3 12 21 12 21Z"/><circle cx="12" cy="10.5" r="2.4"/></symbol>
  <symbol id="km-download" viewBox="0 0 24 24"><path d="M12 3v12"/><path d="m7 10.5 5 5 5-5"/><path d="M5 20.5h14"/></symbol>
  <symbol id="km-share" viewBox="0 0 24 24"><path d="M12 15.5V4"/><path d="m8 8 4-4 4 4"/><path d="M6 12v7a1 1 0 0 0 1 1h10a1 1 0 0 0 1-1v-7"/></symbol>
  <symbol id="km-folder" viewBox="0 0 24 24"><path d="M3 7a1 1 0 0 1 1-1h4.6l2 2H20a1 1 0 0 1 1 1v8a1 1 0 0 1-1 1H4a1 1 0 0 1-1-1Z"/></symbol>
  <symbol id="km-link" viewBox="0 0 24 24"><path d="m9.5 14.5 5-5"/><path d="M11 7.5 12.2 6.3a3.8 3.8 0 0 1 5.5 5.5l-1.2 1.2"/><path d="M13 16.5 11.8 17.7a3.8 3.8 0 0 1-5.5-5.5l1.2-1.2"/></symbol>
  <symbol id="km-mic" viewBox="0 0 24 24"><rect x="9" y="3" width="6" height="11" rx="3"/><path d="M5.5 11a6.5 6.5 0 0 0 13 0"/><path d="M12 17.5V21"/><path d="M9 21h6"/></symbol>
  <symbol id="km-star" viewBox="0 0 24 24"><path d="m12 3.5 2.6 5.3 5.8.8-4.2 4.1 1 5.8L12 16.8 6.8 19.5l1-5.8-4.2-4.1 5.8-.8Z"/></symbol>
  <symbol id="km-chat" viewBox="0 0 24 24"><path d="M5 5h14a1 1 0 0 1 1 1v9a1 1 0 0 1-1 1H9l-4 4V6a1 1 0 0 1 1-1Z"/></symbol>
  <symbol id="km-book" viewBox="0 0 24 24"><path d="M5 4.5h10a2 2 0 0 1 2 2V20H7a2 2 0 0 1-2-2Z"/><path d="M17 20a2 2 0 0 0-2-2H5"/></symbol>
  <symbol id="km-archive" viewBox="0 0 24 24"><rect x="3.5" y="4" width="17" height="4.5" rx="1"/><path d="M5 8.5V19a1 1 0 0 0 1 1h12a1 1 0 0 0 1-1V8.5"/><path d="M10 12h4"/></symbol>
  <symbol id="km-check" viewBox="0 0 24 24"><path d="m5 12.5 4.5 4.5L19 6.5"/></symbol>
  <symbol id="km-check-circle" viewBox="0 0 24 24"><circle cx="12" cy="12" r="8.5"/><path d="m8.2 12.2 2.6 2.6 4.9-5.4"/></symbol>
  <symbol id="km-x-circle" viewBox="0 0 24 24"><circle cx="12" cy="12" r="8.5"/><path d="m9.3 9.3 5.4 5.4M14.7 9.3l-5.4 5.4"/></symbol>
  <symbol id="km-alert" viewBox="0 0 24 24"><path d="M12 3.5 2.5 20.5h19Z"/><path d="M12 10v4.5"/><path d="M12 17.5h.01"/></symbol>
  <symbol id="km-info" viewBox="0 0 24 24"><circle cx="12" cy="12" r="8.5"/><path d="M12 11v5.5"/><path d="M12 7.8h.01"/></symbol>
  <symbol id="km-calendar" viewBox="0 0 24 24"><rect x="4" y="5" width="16" height="16" rx="2"/><path d="M4 9.5h16M8.5 3v4M15.5 3v4"/></symbol>
  <symbol id="km-clock" viewBox="0 0 24 24"><circle cx="12" cy="12" r="8.5"/><path d="M12 7.2V12l3.3 2"/></symbol>
  <symbol id="km-globe" viewBox="0 0 24 24"><circle cx="12" cy="12" r="8.5"/><path d="M3.5 12h17"/><path d="M12 3.5c2.6 2.8 2.6 14.2 0 17-2.6-2.8-2.6-14.2 0-17Z"/></symbol>
  <symbol id="km-key" viewBox="0 0 24 24"><circle cx="8" cy="8" r="4.2"/><path d="m11 11 8.5 8.5"/><path d="m16 16 2-2M18.5 18.5 20.5 16.5"/></symbol>
  <symbol id="km-inbox" viewBox="0 0 24 24"><path d="M4 13h4l1.5 2.5h5L16 13h4"/><path d="m4.5 13 2-7.5a1 1 0 0 1 1-.7h9a1 1 0 0 1 1 .7l2 7.5V19a1 1 0 0 1-1 1H5.5a1 1 0 0 1-1-1Z"/></symbol>
  <symbol id="km-bulb" viewBox="0 0 24 24"><path d="M9.5 18.5h5"/><path d="M10 21.5h4"/><path d="M12 2.5A6.5 6.5 0 0 0 8 14c.8.8 1 1.6 1 2.5h6c0-.9.2-1.7 1-2.5a6.5 6.5 0 0 0-4-11.5Z"/></symbol>
  <symbol id="km-bolt" viewBox="0 0 24 24"><path d="M13 2.5 4.5 13.5H11l-1 8 8.5-11H12Z"/></symbol>
  <symbol id="km-eye" viewBox="0 0 24 24"><path d="M2.5 12S6 5.5 12 5.5 21.5 12 21.5 12 18 18.5 12 18.5 2.5 12 2.5 12Z"/><circle cx="12" cy="12" r="3"/></symbol>
  <symbol id="km-heart" viewBox="0 0 24 24"><path d="M12 20.5S3.5 15.5 3.5 9.4A4.4 4.4 0 0 1 12 7.2a4.4 4.4 0 0 1 8.5 2.2c0 6.1-8.5 11.1-8.5 11.1Z"/></symbol>
  <symbol id="km-phone" viewBox="0 0 24 24"><path d="M6 3h3l1.8 4.6-2.2 1.4a11.5 11.5 0 0 0 5.4 5.4l1.4-2.2L20 15v3a2 2 0 0 1-2.1 2A16.5 16.5 0 0 1 4 5.1 2 2 0 0 1 6 3Z"/></symbol>
  <symbol id="km-mail" viewBox="0 0 24 24"><rect x="3" y="5" width="18" height="14" rx="2"/><path d="m3.5 7 8.5 6 8.5-6"/></symbol>
  <symbol id="km-device" viewBox="0 0 24 24"><rect x="7" y="3" width="10" height="18" rx="2.5"/><path d="M10.5 18h3"/></symbol>
  <symbol id="km-help" viewBox="0 0 24 24"><circle cx="12" cy="12" r="8.5"/><path d="M9.6 9.6a2.5 2.5 0 1 1 3.4 2.3c-.7.3-1 .8-1 1.6"/><path d="M12 16.5h.01"/></symbol>
  <symbol id="km-edit" viewBox="0 0 24 24"><path d="M4 20h4L19 9l-4-4L4 16Z"/><path d="m13.5 6.5 4 4"/></symbol>
  <symbol id="km-clipboard" viewBox="0 0 24 24"><rect x="6" y="4.5" width="12" height="16.5" rx="2"/><path d="M9 4.5a1 1 0 0 1 1-1h4a1 1 0 0 1 1 1V6.5H9Z"/><path d="M9 11h6M9 14.5h4"/></symbol>
  <symbol id="km-wifi-off" viewBox="0 0 24 24"><path d="M3 8.5a16 16 0 0 1 18 0"/><path d="M6 12a11 11 0 0 1 12 0"/><path d="M9 15.5a6 6 0 0 1 6 0"/><path d="M12 19.5h.01"/><path d="m3 3 18 18"/></symbol>
  <symbol id="km-dot" viewBox="0 0 24 24"><circle cx="12" cy="12" r="5" fill="currentColor" stroke="none"/></symbol>

  <!-- ── Domain ── -->
  <symbol id="km-rupee" viewBox="0 0 24 24"><path d="M6.5 4.5h11"/><path d="M6.5 8.5h11"/><path d="M6.5 12.5h3.5c4.2 0 4.2-8 0-8"/><path d="m6.5 12.5 8.5 7"/></symbol>
  <symbol id="km-chart" viewBox="0 0 24 24"><path d="M4 4v16h16"/><rect x="7.5" y="11.5" width="2.6" height="6" rx="0.7"/><rect x="12.5" y="8.5" width="2.6" height="9" rx="0.7"/><rect x="17.4" y="5.5" width="2.6" height="12" rx="0.7"/></symbol>
  <symbol id="km-trend" viewBox="0 0 24 24"><path d="M3.5 16.5 9.5 10.5l3.5 3.5 7-7"/><path d="M16.5 7h3.5v3.5"/></symbol>
  <symbol id="km-store" viewBox="0 0 24 24"><path d="m3.5 9 1.4-4.4A1 1 0 0 1 5.9 4h12.2a1 1 0 0 1 1 .6L20.5 9"/><path d="M4 9a2.4 2.4 0 0 0 4.7 0 2.4 2.4 0 0 0 4.6 0 2.4 2.4 0 0 0 4.7 0"/><path d="M5 11.5V20h14v-8.5"/><path d="M10 20v-4h4v4"/></symbol>
  <symbol id="km-building" viewBox="0 0 24 24"><rect x="5" y="3" width="14" height="18" rx="1"/><path d="M9 7h2M13 7h2M9 11h2M13 11h2"/><path d="M10 21v-4h4v4"/></symbol>
  <symbol id="km-temple" viewBox="0 0 24 24"><path d="M12 3 3.5 8h17Z"/><path d="M5.5 8.5v8M9.5 8.5v8M14.5 8.5v8M18.5 8.5v8"/><path d="M3.5 20h17"/></symbol>
  <symbol id="km-bank" viewBox="0 0 24 24"><path d="M12 3 3 7.5h18Z"/><path d="M5.5 11v6M9.5 11v6M14.5 11v6M18.5 11v6"/><path d="M3.5 7.5h17"/><path d="M3 20.5h18"/></symbol>
  <symbol id="km-factory" viewBox="0 0 24 24"><path d="M3 20.5V11l5 3V11l5 3V8l6 4v8.5Z"/><path d="M3 20.5h18"/><path d="M7.5 17h.01M12 17h.01M16.5 17h.01"/></symbol>
  <symbol id="km-handshake" viewBox="0 0 24 24"><path d="M12 9 9.6 6.6a2 2 0 0 0-2.8 0L3.6 9.8a2 2 0 0 0 0 2.8L7 16"/><path d="m12 9 2.4-2.4a2 2 0 0 1 2.8 0l3.2 3.2a2 2 0 0 1 0 2.8L17 16"/><path d="m8.5 12.5 2.4 2.4a1.8 1.8 0 0 0 2.6 0"/></symbol>
  <symbol id="km-farmer" viewBox="0 0 24 24"><path d="M4 8.5c2.2-2.6 13.8-2.6 16 0"/><path d="m9.5 8.5 1.2-3.7a1.4 1.4 0 0 1 2.6 0L14.5 8.5"/><circle cx="12" cy="12.5" r="2.6"/><path d="M6.5 21a5.5 5.5 0 0 1 11 0"/></symbol>
  <symbol id="km-box" viewBox="0 0 24 24"><path d="m12 3 8 4.5v9L12 21l-8-4.5v-9Z"/><path d="m4 7.5 8 4.5 8-4.5"/><path d="M12 12v9"/></symbol>
  <symbol id="km-cart" viewBox="0 0 24 24"><circle cx="9.5" cy="20" r="1.4"/><circle cx="17" cy="20" r="1.4"/><path d="M3 4h2l2.3 11.2a1 1 0 0 0 1 .8h8.4a1 1 0 0 0 1-.8L19.5 8H6.2"/></symbol>
  <symbol id="km-shield" viewBox="0 0 24 24"><path d="M12 3 5 6v5c0 4.6 3 7.6 7 9 4-1.4 7-4.4 7-9V6Z"/><path d="m9 12 2 2 4-4"/></symbol>
  <symbol id="km-truck" viewBox="0 0 24 24"><path d="M3 6.5h10.5v9H3z"/><path d="M13.5 9H17l3.5 3.2v3.3h-7z"/><circle cx="7" cy="18" r="1.7"/><circle cx="17.5" cy="18" r="1.7"/></symbol>
  <symbol id="km-bottle" viewBox="0 0 24 24"><path d="M10 3h4v3l1.4 1.9a3 3 0 0 1 .6 1.8V19a2 2 0 0 1-2 2h-4a2 2 0 0 1-2-2V9.7a3 3 0 0 1 .6-1.8L10 6Z"/><path d="M8 13h8"/></symbol>
  <symbol id="km-flask" viewBox="0 0 24 24"><path d="M9 3h6"/><path d="M10 3v6.2L5.6 18a1.5 1.5 0 0 0 1.3 2.2h10.2a1.5 1.5 0 0 0 1.3-2.2L14 9.2V3"/><path d="M8 14.5h8"/></symbol>
  <symbol id="km-flag-in" viewBox="0 0 24 24"><path d="M5.5 21V3.5"/><path d="M5.5 5h12l-2.6 3.2L17.5 11h-12"/></symbol>

  <!-- ── Crops / commodities (category icons) ── -->
  <symbol id="km-wheat" viewBox="0 0 24 24"><path d="M12 21V8"/><path d="M12 8c0-2.2 1.6-3.8 3.6-3.8 0 2.2-1.6 3.8-3.6 3.8Z"/><path d="M12 8c0-2.2-1.6-3.8-3.6-3.8 0 2.2 1.6 3.8 3.6 3.8Z"/><path d="M12 13c0-2.2 1.6-3.8 3.6-3.8 0 2.2-1.6 3.8-3.6 3.8Z"/><path d="M12 13c0-2.2-1.6-3.8-3.6-3.8 0 2.2 1.6 3.8 3.6 3.8Z"/><path d="M12 18c0-2.2 1.6-3.8 3.6-3.8 0 2.2-1.6 3.8-3.6 3.8Z"/><path d="M12 18c0-2.2-1.6-3.8-3.6-3.8 0 2.2 1.6 3.8 3.6 3.8Z"/></symbol>
  <symbol id="km-legume" viewBox="0 0 24 24"><path d="M6 6c8.5 0 12 3.5 12 12"/><path d="M6 6c0 8.5 3.5 12 12 12"/><circle cx="9.4" cy="11" r="1.1" fill="currentColor" stroke="none"/><circle cx="12" cy="13.6" r="1.1" fill="currentColor" stroke="none"/><circle cx="14.6" cy="16.2" r="1.1" fill="currentColor" stroke="none"/></symbol>
  <symbol id="km-seed" viewBox="0 0 24 24"><path d="M12 3.5c3.6 3.2 3.6 13.8 0 17-3.6-3.2-3.6-13.8 0-17Z"/><path d="M12 4v16"/></symbol>
  <symbol id="km-leaf" viewBox="0 0 24 24"><path d="M4.5 19.5c0-8.3 6.2-14 15-14 0 10.3-6.2 14-15 14Z"/><path d="M4.5 19.5C8 13.8 11.5 10.8 15.5 8.8"/></symbol>
  <symbol id="km-fruit" viewBox="0 0 24 24"><path d="M12 8c-1.3-1.5-3.7-1.7-5.1.1-1.6 2-1.3 5.8 1 9 1.3 1.8 3 2.9 4.1 2.9s2.8-1.1 4.1-2.9c2.3-3.2 2.6-7 1-9C15.7 6.3 13.3 6.5 12 8Z"/><path d="M12 8c.3-2 1.3-3 3-3.3"/></symbol>
  <symbol id="km-spice" viewBox="0 0 24 24"><path d="M9 6.5c.6 2 2.2 3.1 4.2 3.3-.1 4.6-3.2 9.7-7 9.7a2.9 2.9 0 0 1-.3-5.8"/><path d="M9 6.5c-.3-1.1.3-2.1 1.6-2.4"/></symbol>
  <symbol id="km-cotton" viewBox="0 0 24 24"><circle cx="9" cy="9" r="3"/><circle cx="15" cy="9" r="3"/><circle cx="12" cy="13" r="3"/><path d="M12 16v4.5"/></symbol>
  <symbol id="km-sprout" viewBox="0 0 24 24"><path d="M12 20.5V11"/><path d="M12 12c0-3-2.2-5-5.2-5 0 3 2.2 5 5.2 5Z"/><path d="M12 11c0-2.6 2-4.6 4.6-4.6 0 2.6-2 4.6-4.6 4.6Z"/></symbol>

  <!-- ── Weather ── -->
  <symbol id="km-sun" viewBox="0 0 24 24"><circle cx="12" cy="12" r="4"/><path d="M12 2.5v2.2M12 19.3v2.2M4.6 4.6l1.6 1.6M17.8 17.8l1.6 1.6M2.5 12h2.2M19.3 12h2.2M4.6 19.4l1.6-1.6M17.8 6.2l1.6-1.6"/></symbol>
  <symbol id="km-cloud" viewBox="0 0 24 24"><path d="M7 18h10a4 4 0 0 0 .4-7.98A5.5 5.5 0 0 0 6.4 9 4 4 0 0 0 7 18Z"/></symbol>
  <symbol id="km-cloud-sun" viewBox="0 0 24 24"><path d="M12 3.5V2M6.5 5.7 5.4 4.6M17.5 5.7l1.1-1.1M5 10.5H3.5"/><circle cx="12" cy="9.5" r="2.8"/><path d="M7.5 19.5h8.5a3.5 3.5 0 0 0 .4-6.97A4.8 4.8 0 0 0 8.4 11.8 3.5 3.5 0 0 0 7.5 19.5Z"/></symbol>
  <symbol id="km-rain" viewBox="0 0 24 24"><path d="M7 14.5h9a3.6 3.6 0 0 0 .4-7.16A4.9 4.9 0 0 0 6.4 8.5 3.6 3.6 0 0 0 7 14.5Z"/><path d="m8 18-1 2.5M12 18l-1 2.5M16 18l-1 2.5"/></symbol>
  <symbol id="km-snow" viewBox="0 0 24 24"><path d="M7 13.5h9a3.6 3.6 0 0 0 .4-7.16A4.9 4.9 0 0 0 6.4 7.5 3.6 3.6 0 0 0 7 13.5Z"/><path d="M9 17.5h.01M13 17.5h.01M10.5 20.5h.01M14.5 20.5h.01"/></symbol>
  <symbol id="km-fog" viewBox="0 0 24 24"><path d="M7 5h10M4.5 9h13M4 13h14M6 17h12M8 21h9"/></symbol>
  <symbol id="km-droplet" viewBox="0 0 24 24"><path d="M12 3.5s6 6.4 6 10.8a6 6 0 0 1-12 0C6 9.9 12 3.5 12 3.5Z"/></symbol>
  <symbol id="km-wind" viewBox="0 0 24 24"><path d="M3 8.5h11a2.6 2.6 0 1 0-2.6-2.6"/><path d="M3 12.5h15a2.6 2.6 0 1 1-2.6 2.6"/><path d="M3 16.5h9"/></symbol>
  <symbol id="km-fire" viewBox="0 0 24 24"><path d="M12 3c1.2 3.3-2 4.4-2 7.2a2 2 0 0 0 4 0c0-.4 0-.8-.1-1.1 1.4 1.1 2.6 2.9 2.6 5.1a4.5 4.5 0 0 1-9 0c0-3.4 3.3-4.6 4.5-11.2Z"/></symbol>
</svg>
